<mxfile host="app.diagrams.net" modified="2024-02-05T03:28:58.153Z" agent="Mozilla/5.0 (Windows NT 10.0; Win64; x64) AppleWebKit/537.36 (KHTML, like Gecko) Chrome/121.0.0.0 Safari/537.36" etag="OSHu_k8UDcKrjz69jQcg" version="23.1.1" type="github">
  <diagram name="第 1 页" id="ZuTe7DdRdzsCQcWQcRMc">
    <mxGraphModel dx="1354" dy="711" grid="1" gridSize="10" guides="1" tooltips="1" connect="1" arrows="1" fold="1" page="1" pageScale="1" pageWidth="827" pageHeight="1169" math="0" shadow="0">
      <root>
        <mxCell id="0" />
        <mxCell id="1" parent="0" />
        <mxCell id="w7HhCrWTfC1vircZ0-AZ-1" value="" style="rounded=0;whiteSpace=wrap;html=1;" vertex="1" parent="1">
          <mxGeometry x="80" y="840" width="680" height="120" as="geometry" />
        </mxCell>
        <mxCell id="w7HhCrWTfC1vircZ0-AZ-2" value="&lt;font style=&quot;font-size: 16px;&quot;&gt;基于Zebras的项目渐进式可视化搭建平台&lt;/font&gt;" style="rounded=0;whiteSpace=wrap;html=1;" vertex="1" parent="1">
          <mxGeometry x="80" y="660" width="680" height="100" as="geometry" />
        </mxCell>
        <mxCell id="w7HhCrWTfC1vircZ0-AZ-3" value="" style="rounded=0;whiteSpace=wrap;html=1;" vertex="1" parent="1">
          <mxGeometry x="80" y="440" width="680" height="120" as="geometry" />
        </mxCell>
        <mxCell id="w7HhCrWTfC1vircZ0-AZ-4" value="1" style="shape=step;perimeter=stepPerimeter;whiteSpace=wrap;html=1;fixedSize=1;" vertex="1" parent="1">
          <mxGeometry x="160" y="470" width="100" height="60" as="geometry" />
        </mxCell>
        <mxCell id="w7HhCrWTfC1vircZ0-AZ-9" value="5" style="shape=step;perimeter=stepPerimeter;whiteSpace=wrap;html=1;fixedSize=1;" vertex="1" parent="1">
          <mxGeometry x="250" y="470" width="100" height="60" as="geometry" />
        </mxCell>
        <mxCell id="w7HhCrWTfC1vircZ0-AZ-10" value="20" style="shape=step;perimeter=stepPerimeter;whiteSpace=wrap;html=1;fixedSize=1;" vertex="1" parent="1">
          <mxGeometry x="340" y="470" width="100" height="60" as="geometry" />
        </mxCell>
        <mxCell id="w7HhCrWTfC1vircZ0-AZ-11" value="40" style="shape=step;perimeter=stepPerimeter;whiteSpace=wrap;html=1;fixedSize=1;" vertex="1" parent="1">
          <mxGeometry x="430" y="470" width="100" height="60" as="geometry" />
        </mxCell>
        <mxCell id="w7HhCrWTfC1vircZ0-AZ-12" value="......" style="shape=step;perimeter=stepPerimeter;whiteSpace=wrap;html=1;fixedSize=1;" vertex="1" parent="1">
          <mxGeometry x="520" y="470" width="100" height="60" as="geometry" />
        </mxCell>
        <mxCell id="w7HhCrWTfC1vircZ0-AZ-13" value="100" style="shape=step;perimeter=stepPerimeter;whiteSpace=wrap;html=1;fixedSize=1;" vertex="1" parent="1">
          <mxGeometry x="610" y="470" width="100" height="60" as="geometry" />
        </mxCell>
        <mxCell id="w7HhCrWTfC1vircZ0-AZ-14" value="" style="rounded=0;whiteSpace=wrap;html=1;" vertex="1" parent="1">
          <mxGeometry x="80" y="560" width="680" height="50" as="geometry" />
        </mxCell>
        <mxCell id="w7HhCrWTfC1vircZ0-AZ-15" value="项目验收之时，代码废弃之日" style="rounded=0;whiteSpace=wrap;html=1;" vertex="1" parent="1">
          <mxGeometry x="80" y="840" width="680" height="40" as="geometry" />
        </mxCell>
        <mxCell id="w7HhCrWTfC1vircZ0-AZ-16" value="低代码需求量与日俱增" style="rounded=0;whiteSpace=wrap;html=1;" vertex="1" parent="1">
          <mxGeometry x="80" y="960" width="680" height="40" as="geometry" />
        </mxCell>
        <mxCell id="w7HhCrWTfC1vircZ0-AZ-17" value="A" style="rounded=0;whiteSpace=wrap;html=1;" vertex="1" parent="1">
          <mxGeometry x="80" y="880" width="130" height="80" as="geometry" />
        </mxCell>
        <mxCell id="w7HhCrWTfC1vircZ0-AZ-18" value="B" style="rounded=0;whiteSpace=wrap;html=1;" vertex="1" parent="1">
          <mxGeometry x="210" y="880" width="140" height="80" as="geometry" />
        </mxCell>
        <mxCell id="w7HhCrWTfC1vircZ0-AZ-19" value="C" style="rounded=0;whiteSpace=wrap;html=1;" vertex="1" parent="1">
          <mxGeometry x="350" y="880" width="140" height="80" as="geometry" />
        </mxCell>
        <mxCell id="w7HhCrWTfC1vircZ0-AZ-20" value="D" style="rounded=0;whiteSpace=wrap;html=1;" vertex="1" parent="1">
          <mxGeometry x="480" y="880" width="140" height="80" as="geometry" />
        </mxCell>
        <mxCell id="w7HhCrWTfC1vircZ0-AZ-21" value="..." style="rounded=0;whiteSpace=wrap;html=1;" vertex="1" parent="1">
          <mxGeometry x="620" y="880" width="140" height="80" as="geometry" />
        </mxCell>
        <mxCell id="w7HhCrWTfC1vircZ0-AZ-22" value="amis" style="rounded=0;whiteSpace=wrap;html=1;" vertex="1" parent="1">
          <mxGeometry x="80" y="930" width="130" height="30" as="geometry" />
        </mxCell>
        <mxCell id="w7HhCrWTfC1vircZ0-AZ-23" value="lowcode" style="rounded=0;whiteSpace=wrap;html=1;" vertex="1" parent="1">
          <mxGeometry x="210" y="930" width="140" height="30" as="geometry" />
        </mxCell>
        <mxCell id="w7HhCrWTfC1vircZ0-AZ-24" value="react-dnd" style="rounded=0;whiteSpace=wrap;html=1;" vertex="1" parent="1">
          <mxGeometry x="350" y="930" width="130" height="30" as="geometry" />
        </mxCell>
        <mxCell id="w7HhCrWTfC1vircZ0-AZ-25" value="react-rnd" style="rounded=0;whiteSpace=wrap;html=1;" vertex="1" parent="1">
          <mxGeometry x="480" y="930" width="140" height="30" as="geometry" />
        </mxCell>
        <mxCell id="w7HhCrWTfC1vircZ0-AZ-26" value="" style="endArrow=classic;html=1;rounded=0;" edge="1" parent="1">
          <mxGeometry relative="1" as="geometry">
            <mxPoint x="161" y="585" as="sourcePoint" />
            <mxPoint x="711" y="585" as="targetPoint" />
          </mxGeometry>
        </mxCell>
        <mxCell id="w7HhCrWTfC1vircZ0-AZ-27" value="Label" style="edgeLabel;resizable=0;html=1;align=center;verticalAlign=middle;labelBorderColor=default;fontSize=16;" connectable="0" vertex="1" parent="w7HhCrWTfC1vircZ0-AZ-26">
          <mxGeometry relative="1" as="geometry" />
        </mxCell>
        <mxCell id="w7HhCrWTfC1vircZ0-AZ-28" value="Source" style="edgeLabel;resizable=0;html=1;align=left;verticalAlign=bottom;" connectable="0" vertex="1" parent="w7HhCrWTfC1vircZ0-AZ-26">
          <mxGeometry x="-1" relative="1" as="geometry" />
        </mxCell>
        <mxCell id="w7HhCrWTfC1vircZ0-AZ-29" value="Target" style="edgeLabel;resizable=0;html=1;align=right;verticalAlign=bottom;" connectable="0" vertex="1" parent="w7HhCrWTfC1vircZ0-AZ-26">
          <mxGeometry x="1" relative="1" as="geometry" />
        </mxCell>
      </root>
    </mxGraphModel>
  </diagram>
</mxfile>
